<svg width="76" height="26" viewBox="0 0 76 26" fill="none" xmlns="http://www.w3.org/2000/svg">
<rect x="0.5" y="0.5" width="75" height="25" rx="5.5" stroke="#188145"/>
<path d="M36.1248 15.116V16.39H34.8648V18H33.3808V16.39H28.7608V15.984L31.7148 8.76H33.2408L30.6228 15.116H33.3808V12.274H34.8648V15.116H36.1248ZM43.5101 15.018C43.5101 15.9327 43.1788 16.684 42.5161 17.272C41.8535 17.86 41.0508 18.154 40.1081 18.154C39.3615 18.154 38.7035 17.9767 38.1341 17.622C37.5648 17.2673 37.1168 16.782 36.7901 16.166L37.8261 15.424C38.4235 16.3387 39.1701 16.796 40.0661 16.796C40.6261 16.796 41.0835 16.6373 41.4381 16.32C41.8021 15.9933 41.9841 15.5687 41.9841 15.046C41.9841 14.5233 41.7975 14.122 41.4241 13.842C41.0601 13.5527 40.5375 13.408 39.8561 13.408H37.7281V8.76H42.9921V10.09H39.1841V12.26C39.5481 12.176 39.9401 12.134 40.3601 12.134C41.2375 12.134 41.9795 12.3907 42.5861 12.904C43.2021 13.4173 43.5101 14.122 43.5101 15.018ZM48.7443 14.556C48.7256 13.576 49.0803 12.7313 49.8083 12.022C50.5363 11.3033 51.3949 10.9533 52.3843 10.972C53.6723 10.972 54.6383 11.504 55.2823 12.568L54.2463 13.38C53.7609 12.68 53.1449 12.33 52.3983 12.33C51.7823 12.33 51.2689 12.5447 50.8583 12.974C50.4476 13.4033 50.2423 13.9307 50.2423 14.556C50.2423 15.1907 50.4476 15.7227 50.8583 16.152C51.2689 16.5813 51.7823 16.796 52.3983 16.796C53.1263 16.796 53.7423 16.4507 54.2463 15.76L55.2823 16.558C54.9743 17.062 54.5683 17.454 54.0643 17.734C53.5603 18.014 53.0003 18.154 52.3843 18.154C51.3669 18.154 50.5036 17.804 49.7943 17.104C49.0943 16.404 48.7443 15.5547 48.7443 14.556ZM56.9169 18V10.972H57.4349L60.6689 14.71L63.9169 10.972H64.4069V18H62.9369V14.024L60.9209 16.362H60.4029L58.4009 14.038V18H56.9169Z" fill="#188145"/>
<path d="M15 8H18V11" stroke="#188145" stroke-width="1.5" stroke-linecap="round" stroke-linejoin="round"/>
<path d="M11 18H8V15" stroke="#188145" stroke-width="1.5" stroke-linecap="round" stroke-linejoin="round"/>
<path d="M14.5002 11.5L18.0002 8" stroke="#188145" stroke-width="1.5" stroke-linecap="round" stroke-linejoin="round"/>
<path d="M11.5 14.5L8 18" stroke="#188145" stroke-width="1.5" stroke-linecap="round" stroke-linejoin="round"/>
</svg>
