<svg width="76" height="26" viewBox="0 0 76 26" fill="none" xmlns="http://www.w3.org/2000/svg">
<rect x="0.5" y="0.5" width="75" height="25" rx="5.5" stroke="#188145"/>
<path d="M35.253 14.962C35.253 15.858 34.931 16.614 34.287 17.23C33.643 17.846 32.873 18.154 31.977 18.154C31.0903 18.1727 30.3203 17.8693 29.667 17.244C29.0136 16.6093 28.6963 15.844 28.715 14.948C28.715 14.6027 28.7663 14.2667 28.869 13.94C28.981 13.6133 29.1116 13.3287 29.261 13.086C29.3916 12.8713 29.6296 12.5167 29.975 12.022L32.285 8.76H34.035L31.809 11.91C31.9303 11.882 32.0656 11.868 32.215 11.868C33.0363 11.868 33.7456 12.1713 34.343 12.778C34.9496 13.3753 35.253 14.1033 35.253 14.962ZM33.783 14.962C33.783 14.4487 33.6056 14.0147 33.251 13.66C32.8963 13.3053 32.4716 13.128 31.977 13.128C31.473 13.128 31.0436 13.3053 30.689 13.66C30.3436 14.0053 30.171 14.4393 30.171 14.962C30.171 15.494 30.3436 15.9327 30.689 16.278C31.0343 16.6233 31.4636 16.796 31.977 16.796C32.481 16.796 32.9056 16.6233 33.251 16.278C33.6056 15.9233 33.783 15.4847 33.783 14.962ZM36.7183 13.296C36.7183 11.8867 37.0169 10.7573 37.6143 9.908C38.2116 9.04 39.0889 8.606 40.2463 8.606C41.4036 8.606 42.2763 9.03533 42.8643 9.894C43.4616 10.7433 43.7603 11.8773 43.7603 13.296C43.7603 14.7333 43.4569 15.9047 42.8503 16.81C42.2529 17.706 41.3849 18.154 40.2463 18.154C39.1076 18.154 38.2349 17.7013 37.6283 16.796C37.0216 15.8907 36.7183 14.724 36.7183 13.296ZM42.2203 13.31C42.2203 11.0793 41.5623 9.964 40.2463 9.964C38.9209 9.964 38.2583 11.0793 38.2583 13.31C38.2583 15.634 38.9209 16.796 40.2463 16.796C41.5623 16.796 42.2203 15.634 42.2203 13.31ZM49.1681 14.556C49.1494 13.576 49.5041 12.7313 50.2321 12.022C50.9601 11.3033 51.8188 10.9533 52.8081 10.972C54.0961 10.972 55.0621 11.504 55.7061 12.568L54.6701 13.38C54.1848 12.68 53.5688 12.33 52.8221 12.33C52.2061 12.33 51.6928 12.5447 51.2821 12.974C50.8714 13.4033 50.6661 13.9307 50.6661 14.556C50.6661 15.1907 50.8714 15.7227 51.2821 16.152C51.6928 16.5813 52.2061 16.796 52.8221 16.796C53.5501 16.796 54.1661 16.4507 54.6701 15.76L55.7061 16.558C55.3981 17.062 54.9921 17.454 54.4881 17.734C53.9841 18.014 53.4241 18.154 52.8081 18.154C51.7908 18.154 50.9274 17.804 50.2181 17.104C49.5181 16.404 49.1681 15.5547 49.1681 14.556ZM57.3407 18V10.972H57.8587L61.0927 14.71L64.3407 10.972H64.8307V18H63.3607V14.024L61.3447 16.362H60.8267L58.8247 14.038V18H57.3407Z" fill="#188145"/>
<path d="M14.9999 8H17.9999V11" stroke="#188145" stroke-width="1.5" stroke-linecap="round" stroke-linejoin="round"/>
<path d="M11 18H8V15" stroke="#188145" stroke-width="1.5" stroke-linecap="round" stroke-linejoin="round"/>
<path d="M14.5002 11.5L18.0002 8" stroke="#188145" stroke-width="1.5" stroke-linecap="round" stroke-linejoin="round"/>
<path d="M11.5 14.5L8 18" stroke="#188145" stroke-width="1.5" stroke-linecap="round" stroke-linejoin="round"/>
</svg>
