<svg width="32" height="32" viewBox="0 0 32 32" fill="none" xmlns="http://www.w3.org/2000/svg">
<circle cx="16" cy="16" r="15.5" stroke="#E0E0DD"/>
<path d="M16 22C16 22 9 18.1818 9 13.5455C9.00014 12.726 9.29166 11.9319 9.82498 11.2981C10.3583 10.6644 11.1005 10.2301 11.9254 10.0691C12.7503 9.90812 13.607 10.0304 14.3499 10.4151C15.0927 10.7998 15.6758 11.4233 16 12.1794L16 12.1794C16.3242 11.4233 16.9073 10.7998 17.6501 10.4151C18.393 10.0304 19.2497 9.90812 20.0746 10.0691C20.8995 10.2301 21.6417 10.6644 22.175 11.2981C22.7083 11.9319 22.9999 12.726 23 13.5455C23 18.1818 16 22 16 22Z" stroke="#626262" stroke-width="1.4" stroke-linecap="round" stroke-linejoin="round"/>
</svg>
