<svg width="34" height="34" viewBox="0 0 34 34" fill="none" xmlns="http://www.w3.org/2000/svg">
<circle cx="17" cy="17" r="16.5" stroke="#E0E0DD"/>
<path d="M17 23C17 23 10 19.1818 10 14.5455C10.0001 13.726 10.2917 12.9319 10.825 12.2981C11.3583 11.6644 12.1005 11.2301 12.9254 11.0691C13.7503 10.9081 14.607 11.0304 15.3499 11.4151C16.0927 11.7998 16.6758 12.4233 17 13.1794L17 13.1794C17.3242 12.4233 17.9073 11.7998 18.6501 11.4151C19.393 11.0304 20.2497 10.9081 21.0746 11.0691C21.8995 11.2301 22.6417 11.6644 23.175 12.2981C23.7083 12.9319 23.9999 13.726 24 14.5455C24 19.1818 17 23 17 23Z" stroke="#DE1205" stroke-width="1.4" stroke-linecap="round" stroke-linejoin="round"/>
</svg>
