<svg width="32" height="32" viewBox="0 0 32 32" fill="none" xmlns="http://www.w3.org/2000/svg">
<path d="M27.1667 12H8.83333C8.3731 12 8 12.2985 8 12.6667V15.3333C8 15.7015 8.3731 16 8.83333 16H27.1667C27.6269 16 28 15.7015 28 15.3333V12.6667C28 12.2985 27.6269 12 27.1667 12Z" fill="#6FCF97"/>
<path d="M26 16V25C26 25.2652 25.9157 25.5196 25.7657 25.7071C25.6157 25.8946 25.4122 26 25.2 26H10.8C10.5878 26 10.3843 25.8946 10.2343 25.7071C10.0843 25.5196 10 25.2652 10 25V16" fill="#6FCF97"/>
<path d="M27 10H5C4.44771 10 4 10.4477 4 11V15C4 15.5523 4.44771 16 5 16H27C27.5523 16 28 15.5523 28 15V11C28 10.4477 27.5523 10 27 10Z" stroke="#333333" stroke-width="1.6" stroke-linecap="round" stroke-linejoin="round"/>
<path d="M26 16V25C26 25.2652 25.8946 25.5196 25.7071 25.7071C25.5196 25.8946 25.2652 26 25 26H7C6.73478 26 6.48043 25.8946 6.29289 25.7071C6.10536 25.5196 6 25.2652 6 25V16" stroke="#333333" stroke-width="1.6" stroke-linecap="round" stroke-linejoin="round"/>
<path d="M16 10V26" stroke="#333333" stroke-width="1.6" stroke-linecap="round" stroke-linejoin="round"/>
<path d="M21.6569 8.58593C20.2426 10.0001 16 10.0001 16 10.0001C16 10.0001 16 5.75751 17.4142 4.34329C17.9769 3.78121 18.7398 3.46559 19.5352 3.46582C20.3305 3.46605 21.0932 3.7821 21.6556 4.3445C22.218 4.9069 22.5341 5.66961 22.5343 6.46497C22.5346 7.26032 22.2189 8.02321 21.6569 8.58593V8.58593Z" stroke="#333333" stroke-width="1.6" stroke-linecap="round" stroke-linejoin="round"/>
<path d="M10.3433 8.58593C11.7575 10.0001 16.0001 10.0001 16.0001 10.0001C16.0001 10.0001 16.0001 5.75751 14.5859 4.34329C14.0232 3.78121 13.2603 3.46559 12.465 3.46582C11.6696 3.46605 10.9069 3.7821 10.3445 4.3445C9.7821 4.9069 9.46605 5.66961 9.46582 6.46497C9.46559 7.26032 9.78121 8.02321 10.3433 8.58593V8.58593Z" stroke="#333333" stroke-width="1.6" stroke-linecap="round" stroke-linejoin="round"/>
</svg>
