<svg width="32" height="32" viewBox="0 0 32 32" fill="none" xmlns="http://www.w3.org/2000/svg">
<path d="M11.837 11.759C10.2748 14.1416 9 16.8632 9 19.4005C9 21.6812 9.89553 23.8686 11.4896 25.4813C13.0837 27.094 15.2457 28 17.5 28C19.7543 28 21.9163 27.094 23.5104 25.4813C25.1045 23.8686 26 21.6812 26 19.4005C26 14.077 22.3571 9.98203 19.4048 7L19.4047 7.00008L15.881 14.4865L11.8371 11.759L11.837 11.759Z" fill="#6FCF97"/>
<path d="M22.4235 18.5C22.2108 19.8621 21.571 21.1214 20.5962 22.0962C19.6214 23.071 18.3621 23.7109 17 23.9235" stroke="#333333" stroke-width="1.6" stroke-linecap="round" stroke-linejoin="round"/>
<path d="M9.00449 8.1701C7.07472 11.0793 5.5 14.4023 5.5 17.5004C5.5 20.2852 6.60625 22.9559 8.57538 24.9251C10.5445 26.8942 13.2152 28.0004 16 28.0004C18.7848 28.0004 21.4555 26.8942 23.4246 24.9251C25.3938 22.9559 26.5 20.2852 26.5 17.5004C26.5 11.0004 22 6.00044 18.3529 2.35938L18.3528 2.35948L14 11.5004L9.00463 8.17019L9.00449 8.1701Z" stroke="#333333" stroke-width="1.6" stroke-linecap="round" stroke-linejoin="round"/>
</svg>
