<svg width="43" height="42" viewBox="0 0 43 42" fill="none" xmlns="http://www.w3.org/2000/svg">
<path d="M18.5424 21C18.5424 19.2282 19.9785 17.7914 21.7504 17.7914C23.5223 17.7914 24.9591 19.2282 24.9591 21C24.9591 22.7718 23.5223 24.2086 21.7504 24.2086C19.9785 24.2086 18.5424 22.7718 18.5424 21ZM16.8079 21C16.8079 23.7296 19.0206 25.9423 21.7504 25.9423C24.4801 25.9423 26.6929 23.7296 26.6929 21C26.6929 18.2703 24.4801 16.0577 21.7504 16.0577C19.0206 16.0577 16.8079 18.2703 16.8079 21ZM25.7335 15.8617C25.7334 16.0902 25.8011 16.3135 25.9279 16.5035C26.0548 16.6935 26.2351 16.8416 26.4461 16.9291C26.6571 17.0166 26.8894 17.0395 27.1135 16.9951C27.3375 16.9506 27.5434 16.8407 27.705 16.6792C27.8666 16.5177 27.9767 16.312 28.0213 16.088C28.066 15.8639 28.0432 15.6317 27.9559 15.4206C27.8685 15.2095 27.7206 15.0291 27.5307 14.9021C27.3408 14.7751 27.1175 14.7073 26.889 14.7072H26.8886C26.5824 14.7073 26.2887 14.829 26.0721 15.0455C25.8556 15.2619 25.7338 15.5555 25.7335 15.8617ZM17.8617 28.8345C16.9233 28.7918 16.4132 28.6355 16.0743 28.5034C15.6249 28.3285 15.3042 28.1201 14.9671 27.7835C14.63 27.4468 14.4213 27.1265 14.2471 26.6771C14.115 26.3383 13.9587 25.8281 13.916 24.8897C13.8694 23.8752 13.86 23.5704 13.86 21.0001C13.86 18.4297 13.8701 18.1258 13.916 17.1104C13.9588 16.172 14.1162 15.6628 14.2471 15.323C14.4221 14.8736 14.6304 14.553 14.9671 14.2159C15.3038 13.8788 15.6241 13.6701 16.0743 13.496C16.4131 13.3638 16.9233 13.2075 17.8617 13.1649C18.8763 13.1182 19.1811 13.1089 21.7504 13.1089C24.3197 13.1089 24.6248 13.119 25.6402 13.1649C26.5786 13.2076 27.0879 13.3651 27.4277 13.496C27.8771 13.6701 28.1977 13.8793 28.5348 14.2159C28.8719 14.5526 29.0798 14.8736 29.2548 15.323C29.3869 15.6618 29.5433 16.172 29.5859 17.1104C29.6326 18.1258 29.6419 18.4297 29.6419 21.0001C29.6419 23.5704 29.6326 23.8743 29.5859 24.8897C29.5432 25.8281 29.3861 26.3382 29.2548 26.6771C29.0798 27.1265 28.8715 27.4471 28.5348 27.7835C28.1982 28.1198 27.8771 28.3285 27.4277 28.5034C27.0889 28.6356 26.5786 28.7919 25.6402 28.8345C24.6256 28.8812 24.3208 28.8905 21.7504 28.8905C19.1799 28.8905 18.876 28.8812 17.8617 28.8345ZM17.782 11.4333C16.7574 11.48 16.0572 11.6424 15.4457 11.8804C14.8124 12.1261 14.2763 12.4557 13.7406 12.9905C13.2049 13.5254 12.8761 14.0623 12.6304 14.6955C12.3924 15.3074 12.23 16.0072 12.1833 17.0318C12.1359 18.0581 12.125 18.3862 12.125 21C12.125 23.6138 12.1359 23.9419 12.1833 24.9682C12.23 25.9929 12.3924 26.6926 12.6304 27.3045C12.8761 27.9373 13.205 28.4749 13.7406 29.0095C14.2762 29.5441 14.8124 29.8732 15.4457 30.1196C16.0583 30.3576 16.7574 30.52 17.782 30.5667C18.8089 30.6134 19.1364 30.625 21.7504 30.625C24.3643 30.625 24.6924 30.6141 25.7187 30.5667C26.7435 30.52 27.4432 30.3576 28.0551 30.1196C28.688 29.8732 29.2245 29.5443 29.7602 29.0095C30.2959 28.4746 30.624 27.9373 30.8704 27.3045C31.1083 26.6926 31.2716 25.9928 31.3175 24.9682C31.3641 23.9412 31.375 23.6138 31.375 21C31.375 18.3862 31.3641 18.0581 31.3175 17.0318C31.2708 16.0071 31.1083 15.307 30.8704 14.6955C30.624 14.0627 30.295 13.5262 29.7602 12.9905C29.2253 12.4548 28.688 12.1261 28.0559 11.8804C27.4432 11.6424 26.7434 11.4792 25.7195 11.4333C24.6932 11.3866 24.3651 11.375 21.7512 11.375C19.1372 11.375 18.8089 11.3859 17.782 11.4333Z" fill="#616161"/>
<circle cx="21.75" cy="21" r="20.5" stroke="#616161"/>
</svg>
