<svg width="102" height="16" viewBox="0 0 102 16" fill="none" xmlns="http://www.w3.org/2000/svg">
<path d="M8.33932 13.3386L12.219 15.8949C12.7149 16.2217 13.3306 15.7357 13.1834 15.1337L12.0625 10.5479C12.031 10.4201 12.0347 10.2857 12.0733 10.1601C12.1119 10.0345 12.1838 9.92279 12.2808 9.83779L15.7598 6.82632C16.217 6.43062 15.981 5.64161 15.3937 5.60197L10.8503 5.29531C10.7279 5.28622 10.6106 5.24116 10.5119 5.16538C10.4132 5.0896 10.3372 4.98621 10.2928 4.86726L8.5983 0.429422C8.55224 0.30317 8.47034 0.194477 8.36348 0.117777C8.25661 0.0410773 8.12984 0 8 0C7.87016 0 7.74339 0.0410773 7.63653 0.117777C7.52967 0.194477 7.44777 0.30317 7.40171 0.429422L5.70722 4.86726C5.66282 4.98621 5.58685 5.0896 5.48814 5.16538C5.38944 5.24116 5.27206 5.28622 5.14969 5.29531L0.60631 5.60197C0.0189969 5.64161 -0.216946 6.43062 0.240183 6.82632L3.71921 9.83779C3.81616 9.92279 3.88808 10.0345 3.92669 10.1601C3.96531 10.2857 3.96905 10.4201 3.93748 10.5479L2.89796 14.8007C2.72137 15.5231 3.46023 16.1063 4.05533 15.7142L7.66069 13.3386C7.76209 13.2715 7.8798 13.2358 8 13.2358C8.12021 13.2358 8.23791 13.2715 8.33932 13.3386Z" fill="#E0E0DD"/>
<path d="M29.6726 13.3386L33.5522 15.8949C34.0481 16.2217 34.6638 15.7357 34.5167 15.1337L33.3958 10.5479C33.3642 10.4201 33.3679 10.2857 33.4066 10.1601C33.4452 10.0345 33.5171 9.92279 33.614 9.83779L37.0931 6.82632C37.5502 6.43062 37.3143 5.64161 36.7269 5.60197L32.1836 5.29531C32.0612 5.28622 31.9438 5.24116 31.8451 5.16538C31.7464 5.0896 31.6704 4.98621 31.626 4.86726L29.9316 0.429422C29.8855 0.30317 29.8036 0.194477 29.6967 0.117777C29.5899 0.0410773 29.4631 0 29.3333 0C29.2034 0 29.0766 0.0410773 28.9698 0.117777C28.8629 0.194477 28.781 0.30317 28.735 0.429422L27.0405 4.86726C26.9961 4.98621 26.9201 5.0896 26.8214 5.16538C26.7227 5.24116 26.6053 5.28622 26.4829 5.29531L21.9396 5.60197C21.3522 5.64161 21.1163 6.43062 21.5734 6.82632L25.0525 9.83779C25.1494 9.92279 25.2213 10.0345 25.2599 10.1601C25.2986 10.2857 25.3023 10.4201 25.2707 10.5479L24.2312 14.8007C24.0546 15.5231 24.7935 16.1063 25.3886 15.7142L28.9939 13.3386C29.0953 13.2715 29.2131 13.2358 29.3333 13.2358C29.4535 13.2358 29.5712 13.2715 29.6726 13.3386Z" fill="#E0E0DD"/>
<path d="M51.0061 13.3386L54.8857 15.8949C55.3816 16.2217 55.9973 15.7357 55.8502 15.1337L54.7293 10.5479C54.6977 10.4201 54.7014 10.2857 54.7401 10.1601C54.7787 10.0345 54.8506 9.92279 54.9475 9.83779L58.4266 6.82632C58.8837 6.43062 58.6478 5.64161 58.0604 5.60197L53.5171 5.29531C53.3947 5.28622 53.2773 5.24116 53.1786 5.16538C53.0799 5.0896 53.0039 4.98621 52.9595 4.86726L51.265 0.429422C51.219 0.30317 51.1371 0.194477 51.0302 0.117777C50.9234 0.0410773 50.7966 0 50.6668 0C50.5369 0 50.4101 0.0410773 50.3033 0.117777C50.1964 0.194477 50.1145 0.30317 50.0685 0.429422L48.374 4.86726C48.3296 4.98621 48.2536 5.0896 48.1549 5.16538C48.0562 5.24116 47.9388 5.28622 47.8164 5.29531L43.2731 5.60197C42.6857 5.64161 42.4498 6.43062 42.9069 6.82632L46.386 9.83779C46.4829 9.92279 46.5548 10.0345 46.5934 10.1601C46.6321 10.2857 46.6358 10.4201 46.6042 10.5479L45.5647 14.8007C45.3881 15.5231 46.127 16.1063 46.7221 15.7142L50.3274 13.3386C50.4288 13.2715 50.5465 13.2358 50.6668 13.2358C50.787 13.2358 50.9047 13.2715 51.0061 13.3386Z" fill="#E0E0DD"/>
<path d="M72.3393 13.3386L76.219 15.8949C76.7149 16.2217 77.3306 15.7357 77.1834 15.1337L76.0625 10.5479C76.031 10.4201 76.0347 10.2857 76.0733 10.1601C76.1119 10.0345 76.1838 9.92279 76.2808 9.83779L79.7598 6.82632C80.217 6.43062 79.981 5.64161 79.3937 5.60197L74.8503 5.29531C74.7279 5.28622 74.6106 5.24116 74.5119 5.16538C74.4132 5.0896 74.3372 4.98621 74.2928 4.86726L72.5983 0.429422C72.5522 0.30317 72.4703 0.194477 72.3635 0.117777C72.2566 0.0410773 72.1298 0 72 0C71.8702 0 71.7434 0.0410773 71.6365 0.117777C71.5297 0.194477 71.4478 0.30317 71.4017 0.429422L69.7072 4.86726C69.6628 4.98621 69.5868 5.0896 69.4881 5.16538C69.3894 5.24116 69.2721 5.28622 69.1497 5.29531L64.6063 5.60197C64.019 5.64161 63.7831 6.43062 64.2402 6.82632L67.7192 9.83779C67.8162 9.92279 67.8881 10.0345 67.9267 10.1601C67.9653 10.2857 67.969 10.4201 67.9375 10.5479L66.898 14.8007C66.7214 15.5231 67.4602 16.1063 68.0553 15.7142L71.6607 13.3386C71.7621 13.2715 71.8798 13.2358 72 13.2358C72.1202 13.2358 72.2379 13.2715 72.3393 13.3386Z" fill="#E0E0DD"/>
<path d="M93.6726 13.3386L97.5522 15.8949C98.0481 16.2217 98.6638 15.7357 98.5167 15.1337L97.3958 10.5479C97.3642 10.4201 97.3679 10.2857 97.4066 10.1601C97.4452 10.0345 97.5171 9.92279 97.614 9.83779L101.093 6.82632C101.55 6.43062 101.314 5.64161 100.727 5.60197L96.1836 5.29531C96.0612 5.28622 95.9438 5.24116 95.8451 5.16538C95.7464 5.0896 95.6704 4.98621 95.626 4.86726L93.9316 0.429422C93.8855 0.30317 93.8036 0.194477 93.6967 0.117777C93.5899 0.0410773 93.4631 0 93.3333 0C93.2034 0 93.0766 0.0410773 92.9698 0.117777C92.8629 0.194477 92.781 0.30317 92.735 0.429422L91.0405 4.86726C90.9961 4.98621 90.9201 5.0896 90.8214 5.16538C90.7227 5.24116 90.6053 5.28622 90.4829 5.29531L85.9396 5.60197C85.3522 5.64161 85.1163 6.43062 85.5734 6.82632L89.0525 9.83779C89.1494 9.92279 89.2213 10.0345 89.2599 10.1601C89.2986 10.2857 89.3023 10.4201 89.2707 10.5479L88.2312 14.8007C88.0546 15.5231 88.7935 16.1063 89.3886 15.7142L92.9939 13.3386C93.0953 13.2715 93.2131 13.2358 93.3333 13.2358C93.4535 13.2358 93.5712 13.2715 93.6726 13.3386Z" fill="#E0E0DD"/>
</svg>
