<svg width="42" height="16" viewBox="0 0 42 16" fill="none" xmlns="http://www.w3.org/2000/svg">
<path d="M28.3086 2.76H28.8266V12H27.3426V4.51L25.4666 5.112L25.1026 3.81L28.3086 2.76ZM33.5817 10.712H37.4877V12H30.8657V11.664L34.1557 8.122C34.6877 7.562 35.0657 7.09533 35.2897 6.722C35.5137 6.34867 35.6257 5.97067 35.6257 5.588C35.6257 5.112 35.4857 4.72467 35.2057 4.426C34.9257 4.118 34.5523 3.964 34.0857 3.964C33.619 3.964 33.241 4.12267 32.9517 4.44C32.6623 4.75733 32.5177 5.15867 32.5177 5.644C32.5177 5.812 32.541 6.05 32.5877 6.358H31.0897C31.0243 6.12467 30.9917 5.85867 30.9917 5.56C30.9917 4.76667 31.281 4.076 31.8597 3.488C32.4383 2.9 33.185 2.606 34.0997 2.606C34.977 2.606 35.705 2.88133 36.2837 3.432C36.8717 3.98267 37.1657 4.664 37.1657 5.476C37.1657 6.11067 36.9977 6.68467 36.6617 7.198C36.363 7.674 35.8777 8.27133 35.2057 8.99L33.5817 10.712Z" fill="#626262"/>
<path d="M10.3601 12.7334L9.18204 14.6918C9.1255 14.7858 9.04553 14.8636 8.9499 14.9176C8.85427 14.9716 8.74625 15 8.63636 15C8.52647 15 8.41845 14.9716 8.32283 14.9176C8.2272 14.8636 8.14722 14.7858 8.09069 14.6918L6.91265 12.7334C6.85611 12.6395 6.77613 12.5617 6.6805 12.5077C6.58488 12.4537 6.47686 12.4253 6.36697 12.4253H1.63636C1.46759 12.4253 1.30573 12.3584 1.18639 12.2394C1.06705 12.1203 1 11.9589 1 11.7905V1.63474C1 1.4664 1.06705 1.30495 1.18639 1.18591C1.30573 1.06687 1.46759 1 1.63636 1H15.6364C15.8051 1 15.967 1.06687 16.0863 1.18591C16.2057 1.30495 16.2727 1.4664 16.2727 1.63474V11.7906C16.2727 11.8739 16.2563 11.9565 16.2243 12.0335C16.1923 12.1105 16.1454 12.1805 16.0863 12.2394C16.0272 12.2983 15.9571 12.3451 15.8799 12.377C15.8027 12.4089 15.7199 12.4253 15.6364 12.4253L10.9058 12.4253C10.7959 12.4253 10.6879 12.4537 10.5922 12.5077C10.4966 12.5617 10.4166 12.6395 10.3601 12.7334Z" stroke="#626262" stroke-width="1.4" stroke-linecap="round" stroke-linejoin="round"/>
<path d="M8.63643 7.66472C9.16361 7.66472 9.59098 7.23844 9.59098 6.71261C9.59098 6.18677 9.16361 5.7605 8.63643 5.7605C8.10925 5.7605 7.68188 6.18677 7.68188 6.71261C7.68188 7.23844 8.10925 7.66472 8.63643 7.66472Z" fill="#626262"/>
<path d="M4.81807 7.66472C5.34525 7.66472 5.77262 7.23844 5.77262 6.71261C5.77262 6.18677 5.34525 5.7605 4.81807 5.7605C4.29089 5.7605 3.86353 6.18677 3.86353 6.71261C3.86353 7.23844 4.29089 7.66472 4.81807 7.66472Z" fill="#626262"/>
<path d="M12.4545 7.66472C12.9817 7.66472 13.4091 7.23844 13.4091 6.71261C13.4091 6.18677 12.9817 5.7605 12.4545 5.7605C11.9274 5.7605 11.5 6.18677 11.5 6.71261C11.5 7.23844 11.9274 7.66472 12.4545 7.66472Z" fill="#626262"/>
</svg>
