<svg width="85" height="26" viewBox="0 0 85 26" fill="none" xmlns="http://www.w3.org/2000/svg">
<rect x="0.5" y="0.5" width="84" height="25" rx="5.5" stroke="#188145"/>
<path d="M32.708 8.76H33.226V18H31.742V10.51L29.866 11.112L29.502 9.81L32.708 8.76ZM42.0551 15.592C42.0551 16.3667 41.7424 16.9873 41.1171 17.454C40.5011 17.9207 39.6984 18.154 38.7091 18.154C37.7104 18.154 36.8984 17.9207 36.2731 17.454C35.6478 16.9873 35.3351 16.3667 35.3351 15.592C35.3351 14.4813 36.0024 13.6833 37.3371 13.198C36.2918 12.6287 35.7691 11.8867 35.7691 10.972C35.7691 10.2253 36.0444 9.64667 36.5951 9.236C37.1551 8.816 37.8598 8.606 38.7091 8.606C39.5491 8.606 40.2444 8.816 40.7951 9.236C41.3458 9.64667 41.6211 10.2253 41.6211 10.972C41.6211 11.896 41.0984 12.638 40.0531 13.198C41.3878 13.6927 42.0551 14.4907 42.0551 15.592ZM37.1831 11.028C37.1831 11.3547 37.2951 11.6253 37.5191 11.84C37.7524 12.0547 38.1444 12.2833 38.6951 12.526C39.2458 12.2927 39.6331 12.0687 39.8571 11.854C40.0904 11.63 40.2071 11.3547 40.2071 11.028C40.2071 10.664 40.0671 10.3747 39.7871 10.16C39.5164 9.936 39.1571 9.824 38.7091 9.824C38.2518 9.824 37.8831 9.936 37.6031 10.16C37.3231 10.3747 37.1831 10.664 37.1831 11.028ZM40.5571 15.536C40.5571 15.1347 40.4124 14.8127 40.1231 14.57C39.8338 14.3273 39.3578 14.0847 38.6951 13.842C38.0418 14.0753 37.5658 14.318 37.2671 14.57C36.9778 14.822 36.8331 15.144 36.8331 15.536C36.8331 15.9653 36.9964 16.306 37.3231 16.558C37.6591 16.8007 38.1211 16.922 38.7091 16.922C39.2971 16.922 39.7498 16.8007 40.0671 16.558C40.3938 16.306 40.5571 15.9653 40.5571 15.536ZM43.6372 13.296C43.6372 11.8867 43.9359 10.7573 44.5332 9.908C45.1305 9.04 46.0079 8.606 47.1652 8.606C48.3225 8.606 49.1952 9.03533 49.7832 9.894C50.3805 10.7433 50.6792 11.8773 50.6792 13.296C50.6792 14.7333 50.3759 15.9047 49.7692 16.81C49.1719 17.706 48.3039 18.154 47.1652 18.154C46.0265 18.154 45.1539 17.7013 44.5472 16.796C43.9405 15.8907 43.6372 14.724 43.6372 13.296ZM49.1392 13.31C49.1392 11.0793 48.4812 9.964 47.1652 9.964C45.8399 9.964 45.1772 11.0793 45.1772 13.31C45.1772 15.634 45.8399 16.796 47.1652 16.796C48.4812 16.796 49.1392 15.634 49.1392 13.31ZM56.087 14.556C56.0684 13.576 56.423 12.7313 57.151 12.022C57.879 11.3033 58.7377 10.9533 59.727 10.972C61.015 10.972 61.981 11.504 62.625 12.568L61.589 13.38C61.1037 12.68 60.4877 12.33 59.741 12.33C59.125 12.33 58.6117 12.5447 58.201 12.974C57.7904 13.4033 57.585 13.9307 57.585 14.556C57.585 15.1907 57.7904 15.7227 58.201 16.152C58.6117 16.5813 59.125 16.796 59.741 16.796C60.469 16.796 61.085 16.4507 61.589 15.76L62.625 16.558C62.317 17.062 61.911 17.454 61.407 17.734C60.903 18.014 60.343 18.154 59.727 18.154C58.7097 18.154 57.8464 17.804 57.137 17.104C56.437 16.404 56.087 15.5547 56.087 14.556ZM64.2596 18V10.972H64.7776L68.0116 14.71L71.2596 10.972H71.7496V18H70.2796V14.024L68.2636 16.362H67.7456L65.7436 14.038V18H64.2596Z" fill="#188145"/>
<path d="M14.9999 8H17.9999V11" stroke="#188145" stroke-width="1.5" stroke-linecap="round" stroke-linejoin="round"/>
<path d="M11 18H8V15" stroke="#188145" stroke-width="1.5" stroke-linecap="round" stroke-linejoin="round"/>
<path d="M14.5002 11.5L18.0002 8" stroke="#188145" stroke-width="1.5" stroke-linecap="round" stroke-linejoin="round"/>
<path d="M11.5 14.5L8 18" stroke="#188145" stroke-width="1.5" stroke-linecap="round" stroke-linejoin="round"/>
</svg>
