<svg width="80" height="26" viewBox="0 0 80 26" fill="none" xmlns="http://www.w3.org/2000/svg">
<rect width="80" height="26" rx="6" fill="#616161"/>
<path d="M30.9328 8.64892H31.4508V17.8889H29.9668V10.3989L28.0908 11.0009L27.7268 9.69892L30.9328 8.64892ZM40.2799 15.4809C40.2799 16.2556 39.9672 16.8762 39.3419 17.3429C38.7259 17.8096 37.9232 18.0429 36.9339 18.0429C35.9352 18.0429 35.1232 17.8096 34.4979 17.3429C33.8726 16.8762 33.5599 16.2556 33.5599 15.4809C33.5599 14.3702 34.2272 13.5722 35.5619 13.0869C34.5166 12.5176 33.9939 11.7756 33.9939 10.8609C33.9939 10.1142 34.2692 9.53558 34.8199 9.12492C35.3799 8.70492 36.0846 8.49492 36.9339 8.49492C37.7739 8.49492 38.4692 8.70492 39.0199 9.12492C39.5706 9.53558 39.8459 10.1142 39.8459 10.8609C39.8459 11.7849 39.3232 12.5269 38.2779 13.0869C39.6126 13.5816 40.2799 14.3796 40.2799 15.4809ZM35.4079 10.9169C35.4079 11.2436 35.5199 11.5142 35.7439 11.7289C35.9772 11.9436 36.3692 12.1722 36.9199 12.4149C37.4706 12.1816 37.8579 11.9576 38.0819 11.7429C38.3152 11.5189 38.4319 11.2436 38.4319 10.9169C38.4319 10.5529 38.2919 10.2636 38.0119 10.0489C37.7412 9.82492 37.3819 9.71292 36.9339 9.71292C36.4766 9.71292 36.1079 9.82492 35.8279 10.0489C35.5479 10.2636 35.4079 10.5529 35.4079 10.9169ZM38.7819 15.4249C38.7819 15.0236 38.6372 14.7016 38.3479 14.4589C38.0586 14.2162 37.5826 13.9736 36.9199 13.7309C36.2666 13.9642 35.7906 14.2069 35.4919 14.4589C35.2026 14.7109 35.0579 15.0329 35.0579 15.4249C35.0579 15.8542 35.2212 16.1949 35.5479 16.4469C35.8839 16.6896 36.3459 16.8109 36.9339 16.8109C37.5219 16.8109 37.9746 16.6896 38.2919 16.4469C38.6186 16.1949 38.7819 15.8542 38.7819 15.4249ZM41.862 13.1849C41.862 11.7756 42.1607 10.6462 42.758 9.79692C43.3553 8.92892 44.2327 8.49492 45.39 8.49492C46.5473 8.49492 47.42 8.92425 48.008 9.78292C48.6053 10.6322 48.904 11.7662 48.904 13.1849C48.904 14.6222 48.6007 15.7936 47.994 16.6989C47.3967 17.5949 46.5287 18.0429 45.39 18.0429C44.2513 18.0429 43.3787 17.5902 42.772 16.6849C42.1653 15.7796 41.862 14.6129 41.862 13.1849ZM47.364 13.1989C47.364 10.9682 46.706 9.85292 45.39 9.85292C44.0647 9.85292 43.402 10.9682 43.402 13.1989C43.402 15.5229 44.0647 16.6849 45.39 16.6849C46.706 16.6849 47.364 15.5229 47.364 13.1989ZM54.3118 14.4449C54.2932 13.4649 54.6478 12.6202 55.3758 11.9109C56.1038 11.1922 56.9625 10.8422 57.9518 10.8609C59.2398 10.8609 60.2058 11.3929 60.8498 12.4569L59.8138 13.2689C59.3285 12.5689 58.7125 12.2189 57.9658 12.2189C57.3498 12.2189 56.8365 12.4336 56.4258 12.8629C56.0152 13.2922 55.8098 13.8196 55.8098 14.4449C55.8098 15.0796 56.0152 15.6116 56.4258 16.0409C56.8365 16.4702 57.3498 16.6849 57.9658 16.6849C58.6938 16.6849 59.3098 16.3396 59.8138 15.6489L60.8498 16.4469C60.5418 16.9509 60.1358 17.3429 59.6318 17.6229C59.1278 17.9029 58.5678 18.0429 57.9518 18.0429C56.9345 18.0429 56.0712 17.6929 55.3618 16.9929C54.6618 16.2929 54.3118 15.4436 54.3118 14.4449ZM62.4844 17.8889V10.8609H63.0024L66.2364 14.5989L69.4844 10.8609H69.9744V17.8889H68.5044V13.9129L66.4884 16.2509H65.9704L63.9684 13.9269V17.8889H62.4844Z" fill="white"/>
<path d="M11 9H18.5" stroke="white" stroke-width="1.4" stroke-linecap="round" stroke-linejoin="round"/>
<path d="M11.0005 13H18.5001" stroke="white" stroke-width="1.4" stroke-linecap="round" stroke-linejoin="round"/>
<path d="M11.0005 17H18.5001" stroke="white" stroke-width="1.4" stroke-linecap="round" stroke-linejoin="round"/>
<path d="M7.5 9H8.5" stroke="white" stroke-width="1.4" stroke-linecap="round" stroke-linejoin="round"/>
<path d="M7.50049 13H8.5001" stroke="white" stroke-width="1.4" stroke-linecap="round" stroke-linejoin="round"/>
<path d="M7.50049 17H8.5001" stroke="white" stroke-width="1.4" stroke-linecap="round" stroke-linejoin="round"/>
</svg>
