<svg width="43" height="42" viewBox="0 0 43 42" fill="none" xmlns="http://www.w3.org/2000/svg">
<path fill-rule="evenodd" clip-rule="evenodd" d="M28.7818 14.4123C29.6064 14.6343 30.2565 15.2844 30.4785 16.1089C30.8908 17.6153 30.8749 20.7549 30.8749 20.7549C30.8749 20.7549 30.8749 23.8787 30.4785 25.385C30.2565 26.2096 29.6064 26.8597 28.7818 27.0817C27.2755 27.4781 21.25 27.4781 21.25 27.4781C21.25 27.4781 15.2403 27.4781 13.7181 27.0658C12.8935 26.8439 12.2434 26.1937 12.0214 25.3692C11.625 23.8787 11.625 20.7391 11.625 20.7391C11.625 20.7391 11.625 17.6153 12.0214 16.1089C12.2434 15.2844 12.9094 14.6184 13.7181 14.3964C15.2244 14 21.25 14 21.25 14C21.25 14 27.2755 14 28.7818 14.4123ZM24.3419 20.7392L19.3312 23.6251V17.8533L24.3419 20.7392Z" fill="#616161"/>
<circle cx="21.25" cy="21" r="20.5" stroke="#616161"/>
</svg>
